<svg width="28" height="30" viewBox="0 0 28 30" fill="none" xmlns="http://www.w3.org/2000/svg"><path d="M19.687.00138179C20.2551.0369162 20.6934.523847 20.6783 1.10261V2.65495c4.513.43784 6.8217 2.9322 6.8217 7.41675V22.4771C27.5 27.4658 24.6565 30 19.0609 30H8.93913C3.34348 30 .5 27.4658.5 22.4771V10.0717c0-2.98528 1.01739-5.12141 3.10435-6.36859L3.75074 3.61968C4.05327 3.47848 4.4081 3.49142 4.70302 3.66264c.34409.19976.54728.5805.52452.98283C5.20478 5.0478 4.95999 5.40232 4.59565 5.56061c-1.38261.82261-2.03478 2.25554-2.03478 4.51109v.398H21.5913C22.1604 10.4697 22.6217 10.939 22.6217 11.5179 22.6217 12.0968 22.1604 12.566 21.5913 12.566H2.56087v9.9111c0 3.8079 1.85217 5.3868 6.37826 5.4133H19.0609c4.4608.0 6.3652-1.6187 6.3652-5.4265V10.0584c0-3.31695-1.4478-4.92236-4.7478-5.30713V5.75963C20.6022 6.29709 20.1395 6.68946 19.6061 6.66898 19.0726 6.6485 18.6404 6.22179 18.6043 5.68002V1.00974L18.6234.843835C18.6659.626429 18.7754.426745 18.9382.27512 19.1417.0855883 19.4114-.0130171 19.687.00138179zM20.2805 21.2955 20.4466 21.3062C20.7314 21.3419 20.9985 21.4725 21.2047 21.6802 21.4521 21.9294 21.5913 22.2689 21.5913 22.6231c0 .732699999999998-.584 1.3268-1.3043 1.3268C19.5666 23.9499 18.9826 23.3558 18.9826 22.6231c0-.732800000000001.584-1.3268 1.3044-1.3268L20.2805 21.2955zM14.0261 21.2963 14.1897 21.3066C14.8328 21.3885 15.3304 21.9467 15.3304 22.6231c0 .732699999999998-.5839 1.3268-1.3043 1.3268S12.7217 23.3558 12.7217 22.6231c0-.732800000000001.584-1.3268 1.3044-1.3268zM7.772 21.2955 7.93788 21.3062C8.22268 21.3419 8.48977 21.4725 8.69597 21.6802 8.94341 21.9294 9.08261 22.2689 9.08261 22.6231 9.08261 23.3558 8.49863 23.9499 7.77826 23.9499S6.47391 23.3558 6.47391 22.6231c0-.732800000000001.58398-1.3268 1.30435-1.3268L7.772 21.2955zm12.5085-5.373L20.4466 15.9327C20.7314 15.9684 20.9985 16.099 21.2047 16.3067 21.4521 16.5559 21.5913 16.8954 21.5913 17.2496c0 .732799999999998-.584 1.3268-1.3043 1.3268C19.5666 18.5764 18.9826 17.9824 18.9826 17.2496c0-.732800000000001.584-1.3268 1.3044-1.3268L20.2805 15.9225zM14.0261 15.9228 14.1897 15.9331C14.8328 16.015 15.3304 16.5732 15.3304 17.2496c0 .732799999999998-.5839 1.3268-1.3043 1.3268S12.7217 17.9824 12.7217 17.2496c0-.732800000000001.584-1.3268 1.3044-1.3268zM7.772 15.9225 7.93788 15.9327C8.22268 15.9684 8.48977 16.099 8.69597 16.3067 8.94341 16.5559 9.08261 16.8954 9.08261 17.2496 9.08261 17.9824 8.49863 18.5764 7.77826 18.5764S6.47391 17.9824 6.47391 17.2496c0-.732800000000001.58398-1.3268 1.30435-1.3268L7.772 15.9225zM8.3587.159671C8.88992.159671 9.33635.565629 9.39565 1.10261v1.4462H15.2913c.569100000000001.0 1.0304.46928 1.0304 1.04816s-.4613 1.04816-1.0304 1.04816H9.36957V5.69329C9.36959 5.97359 9.25924 6.24223 9.06316 6.43918 8.86709 6.63614 8.60163 6.745 8.32609 6.74145L8.17541 6.7264C7.68446 6.64012 7.31508 6.20168 7.32165 5.68002V1.10261L7.35078.945724C7.47117.488497 7.88059.159671 8.3587.159671z" fill="#446df6"/></svg>