<svg width="30" height="30" viewBox="0 0 30 30" fill="none" xmlns="http://www.w3.org/2000/svg"><path d="M15.0101.0c2.4266.0 4.844.598599 6.9919 1.73105C29.3148 5.58957 32.1272 14.6782 28.2713 21.9936 25.6412 26.9819 20.4631 30 14.993 30 13.9243 30 12.8451 29.885 11.7711 29.6472 11.1661 29.5124 10.7844 28.9125 10.9178 28.3073S11.6496 27.3228 12.2586 27.4536c5.5863 1.2422 11.3536-1.439 14.0259-6.5079C29.5632 14.7271 27.1722 6.99819 20.9545 3.71845c-1.8256-.96331-3.881-1.47205-5.9457-1.47205-7.04337.0-12.76314 5.72039-12.76314 12.7516C2.24301 17.0462 2.74234 19.0851 3.68947 20.8968L3.97744 21.4597C4.33014 22.1204 4.40807 22.941 4.17955 23.6837c-.31571.8324-.57859 1.6425-.79522 2.4485C4.2271 25.8785 5.25613 25.5046 5.99983 25.2337L6.30498 25.124C6.88224 24.9086 7.53083 25.2138 7.74218 25.7979 7.95354 26.3807 7.65104 27.0255 7.06849 27.2356l-.30118.1097C5.65506 27.7483 4.13331 28.302 3.1056 28.5319 3.01842 28.5504 2.92463 28.5623 2.83877 28.5597 2.14923 28.5597 1.72916 28.2808 1.49799 28.0456 1.14265 27.6849.973568 27.1788.993382 26.5419.996024 26.4692 1.00527 26.3939 1.02244 26.3212c.26684-1.1364.61425-2.2702 1.03432-3.3683C2.08714 22.8459 2.06865 22.6516 1.98278 22.4891L1.69349 21.9275C.585204 19.8053-.00262425 17.4043.880703e-5 14.9967.880703e-5 6.7273 6.72636.0 14.993.0H15.0101zM14.9935 13.2142C15.9776 13.2142 16.7768 14.015 16.7768 14.9981 16.7768 15.9813 15.9776 16.7821 14.9935 16.7821c-.9841.0-1.7833-.800800000000001-1.7833-1.784.0-.9831.799199999999999-1.7839 1.7833-1.7839zm6.6048.0C22.5824 13.2142 23.3816 14.015 23.3816 14.9981 23.3816 15.9813 22.5824 16.7821 21.5983 16.7821 20.6142 16.7821 19.815 15.9813 19.815 14.9981c0-.9831.799199999999999-1.7839 1.7833-1.7839zM8.38853 13.2148c.984120000000001.0 1.78327.7994 1.78327 1.7839.0.9831-.799149999999999 1.7826-1.78327 1.7826C7.40441 16.7813 6.60523 15.9818 6.60523 14.9987 6.60523 14.0142 7.40441 13.2148 8.38853 13.2148z" fill="#446df6"/></svg>