<svg width="28" height="30" viewBox="0 0 28 30" fill="none" xmlns="http://www.w3.org/2000/svg"><path d="M19.7801.0c4.82.0 7.7068 2.92715 7.7199 7.81457V22.1854C27.5 27.0728 24.6263 30 19.7932 30H15.5087C14.9592 29.9386 14.5434 29.4678 14.5434 28.9073 14.5434 28.3468 14.9592 27.876 15.5087 27.8146h4.2714c3.6836.0 5.5385-1.8941 5.5385-5.6292V7.81457c0-3.7351-1.8549-5.62914-5.5385-5.62914H8.20682c-3.6836.0-5.55152 1.89404-5.55152 5.62914V22.1854c0 3.7351 1.86792 5.6292 5.55152 5.6292C8.75628 27.876 9.17218 28.3468 9.17218 28.9073 9.17218 29.4678 8.75628 29.9386 8.20682 30 3.38679 30 .5 27.0728.5 22.1854V7.81457C.5 2.91391 3.38679.0 8.20682.0H19.7801zm-.3919 20.2649c.5916.0 1.0712.4863 1.0712 1.0861C20.4594 21.9508 19.9798 22.4371 19.3882 22.4371H8.57257c-.59156.0-1.07112-.4863-1.07112-1.0861.0-.599799999999998.47956-1.0861 1.07112-1.0861H19.3882zm0-6.3576C19.8016 13.8611 20.2046 14.0587 20.4255 14.4159c.221.357199999999999.221.811.0 1.1682C20.2046 15.9413 19.8016 16.1389 19.3882 16.0927H8.57257C8.02311 16.0313 7.60721 15.5605 7.60721 15S8.02311 13.9687 8.57257 13.9073H19.3882zM12.7003 7.56291C13.2498 7.62435 13.6656 8.09511 13.6656 8.65563S13.2498 9.68691 12.7003 9.74834H8.58563C8.03617 9.68691 7.62028 9.21615 7.62028 8.65563s.41589-1.03128.96535-1.09272H12.7003z" fill="#446df6"/></svg>