<svg width="120" height="23" viewBox="0 0 120 23" fill="none" xmlns="http://www.w3.org/2000/svg"><path d="M11.2018 9.33953h4.966C17.1836 9.37715 17.8044 9.6405 18.0301 10.1296c.188099999999999.3574.2822.8841.2822 1.5801v6.2075C18.3123 18.5192 18.0489 19.0929 17.5222 19.6384c-1.5801 1.6365-3.9503 2.4548-7.1105 2.4548-2.80276.0-5.23875-1.0534-7.30793-3.1602C1.03459 16.8074.0 14.2491.0 11.2582.0 8.26732 1.0534 5.7749 3.1602 3.78096 5.26701 1.76821 7.75002.761835 10.6093.761835c2.2196.0 4.317.733615 6.2921 2.200855C17.4093 3.33891 17.6633 3.76215 17.6633 4.23242 17.6633 4.68387 17.447 5.21057 17.0143 5.81252 16.2807 6.80949 15.6129 7.30797 15.011 7.30797 14.6536 7.30797 14.0798 7.05403 13.2898 6.54614 12.4997 6.01944 11.5592 5.75609 10.4682 5.75609c-1.42964.0-2.69937.50789-3.8092 1.52367C5.54917 8.27672 4.99425 9.59348 4.99425 11.23c0 1.6177.56432 3.0003 1.69297 4.1478 1.12864 1.1286 2.40777 1.6929 3.83738 1.6929 1.0346.0 1.9657-.1693 2.7934-.5078V13.4873H11.0889C10.5058 13.4873 10.092 13.4121 9.84742 13.2616 9.60288 13.1111 9.44299 12.8948 9.36775 12.6126 9.2925 12.3116 9.25488 11.9166 9.25488 11.4275 9.25488 10.9196 9.2925 10.5152 9.36775 10.2142 9.4618 9.91326 9.62169 9.70634 9.84742 9.59348c.33858-.1693.79008-.25395 1.35438-.25395z" fill="#446df6"/><path d="M34.8996 12.6126C34.8996 13.7601 34.608 14.6159 34.0249 15.1803 33.4605 15.7258 32.8304 15.9985 32.1344 15.9985H25.4472C25.4472 16.5252 25.7576 16.9673 26.3783 17.3247 26.9991 17.6821 27.6198 17.8608 28.2406 17.8608c1.091.0 1.9469-.1129 2.5676-.3386L31.1186 17.4093C31.5701 17.2024 31.9463 17.099 32.2473 17.099 32.8492 17.099 33.3665 17.5222 33.7991 18.3687 34.0437 18.8766 34.166 19.3092 34.166 19.6666c0 1.6742-2.0034 2.5113-6.0101 2.5113C26.7639 22.1779 25.5224 21.9427 24.4314 21.4725 23.3592 20.9834 22.5221 20.3438 21.9202 19.5538c-1.1851-1.5237-1.7777-3.2261-1.7777-5.1072C20.1425 12.0765 20.9044 10.186 22.4281 8.77521c1.5424-1.42962 3.4611-2.14443 5.756-2.14443 2.6147.0 4.5334.92173 5.7561 2.76518C34.5798 10.3741 34.8996 11.4463 34.8996 12.6126zM28.946 13.4309C29.6608 13.4309 30.0182 13.1299 30.0182 12.528 30.0182 12.0953 29.8489 11.7473 29.5103 11.484 29.1905 11.2206 28.7202 11.0889 28.0995 11.0889c-.602.0-1.2039.254-1.8058.761899999999999C25.6917 12.3398 25.3907 12.8665 25.3907 13.4309H28.946z" fill="#446df6"/><path d="M45.099 11.9354l-1.834-.1129v3.8939C43.265 16.2243 43.3402 16.5911 43.4907 16.8168 43.66 17.0425 43.961 17.1554 44.3936 17.1554 44.8451 17.1554 45.1837 17.1742 45.4094 17.2118 45.6539 17.2306 45.9079 17.3153 46.1712 17.4658 46.6039 17.7103 46.8202 18.3405 46.8202 19.3562 46.8202 20.5413 46.5569 21.2655 46.0302 21.5289 45.748 21.6606 45.4941 21.7452 45.2683 21.7828 45.0614 21.8016 44.751 21.811 44.3372 21.811 42.3809 21.811 40.8948 21.369 39.8791 20.4849c-1.0158-.8841-1.5237-2.3796-1.5237-4.4864v-4.176C37.998 11.879 37.6124 11.9072 37.1985 11.9072 36.7847 11.9072 36.4367 11.7473 36.1545 11.4275 35.8912 11.1077 35.7595 10.5622 35.7595 9.79099 35.7595 9.01975 35.8065 8.46483 35.9006 8.12624 35.9946 7.76884 36.1263 7.51489 36.2956 7.3644 36.5966 7.11986 36.9728 6.99759 37.4243 6.99759L38.3554 7.11046V4.2042C38.3554 3.77155 38.3648 3.45177 38.3836 3.24485 38.4212 3.03793 38.5153 2.81221 38.6658 2.56767 38.9103 2.0974 39.6345 1.86226 40.8384 1.86226c1.2791.0 2.041.348 2.2855 1.044C43.218 3.20723 43.265 3.68691 43.265 4.34528V7.11046c.8277-.07524 1.4484-.11287 1.8622-.11287C45.5599 6.99759 45.8797 7.01641 46.0866 7.05403 46.3123 7.07284 46.5663 7.15749 46.8484 7.30797 47.3375 7.55251 47.582 8.27672 47.582 9.48061 47.582 10.6657 47.3281 11.3899 46.8202 11.6533 46.538 11.7849 46.2841 11.8696 46.0584 11.9072 45.8515 11.926 45.5317 11.9354 45.099 11.9354z" fill="#446df6"/><path d="M73.1141 1.24151c1.2603.45146 1.8905 1.0534 1.8905 1.80583.0.24454-.112899999999996.7054-.3386 1.38259L69.2485 20.0899C69.2109 20.2215 69.145 20.3814 69.051 20.5695 68.9569 20.7576 68.703 21.0116 68.2891 21.3314 67.8941 21.6323 67.4144 21.7828 66.8501 21.7828 66.3046 21.7828 65.8249 21.6323 65.4111 21.3314 65.0161 21.0116 64.7527 20.7012 64.621 20.4002L61.3198 10.6657c-2.088 6.1699-3.1508 9.3113-3.1885 9.4242C58.0937 20.2027 58.0091 20.3626 57.8774 20.5695 57.7457 20.7765 57.5952 20.9646 57.4259 21.1339 56.9933 21.5665 56.476 21.7828 55.8741 21.7828 55.2721 21.7828 54.7736 21.6418 54.3786 21.3596 54.0024 21.0774 53.7484 20.7953 53.6168 20.5131L53.4193 20.0899 47.9735 4.42993C47.7666 3.80917 47.6632 3.34831 47.6632 3.04734 47.6632 2.29491 48.2933 1.70237 49.5536 1.26973 50.0992 1.08162 50.5882.987565 51.0209.987565 51.4723.987565 51.8109 1.13805 52.0367 1.43902 52.2812 1.73999 52.4975 2.20086 52.6856 2.82161l3.1038 9.42419L58.865 2.96269C59.1283 2.17264 59.608 1.62713 60.304 1.32616 60.605 1.19448 60.9906 1.12865 61.4608 1.12865 61.9499 1.12865 62.4014 1.28854 62.8152 1.60832 63.229 1.90929 63.4924 2.21026 63.6053 2.51123l3.2448 9.79097L69.9539 2.82161C70.1044 2.38896 70.2266 2.06918 70.3207 1.86226 70.4148 1.65535 70.584 1.45783 70.8286 1.26973 71.0919 1.06281 71.4117.959349 71.7879.959349 72.1641.959349 72.6062 1.0534 73.1141 1.24151z" fill="#446df6"/><path d="M84.2231 8.52127C84.3359 7.46786 85.079 6.94116 86.4521 6.94116 87.1858 6.94116 87.7313 6.99759 88.0887 7.11046 88.4461 7.22332 88.6906 7.42084 88.8223 7.703 88.9728 7.98516 89.0574 8.2391 89.0762 8.46483 89.1139 8.67175 89.1327 8.99153 89.1327 9.42418V19.2998C89.1327 19.7325 89.1139 20.0617 89.0762 20.2874 89.0574 20.4943 88.9822 20.7388 88.8505 21.021 88.5872 21.5101 87.9382 21.7546 86.9036 21.7546 85.8878 21.7546 85.2012 21.6323 84.8438 21.3878 84.5052 21.1245 84.3077 20.7482 84.2513 20.2592 83.5553 21.2561 82.389 21.7546 80.7525 21.7546 79.1348 21.7546 77.6299 21.0116 76.2379 19.5255 74.8459 18.0395 74.1499 16.3183 74.1499 14.362 74.1499 12.3869 74.8459 10.6657 76.2379 9.19845 77.6487 7.7124 79.1912 6.96938 80.8654 6.96938 81.5049 6.96938 82.0881 7.08224 82.6148 7.30797 83.1415 7.5337 83.5083 7.75002 83.7152 7.95694 83.9221 8.14505 84.0914 8.33316 84.2231 8.52127zM79.0877 14.3902C79.0877 15.011 79.3323 15.5753 79.8214 16.0832 80.3104 16.5723 80.903 16.8168 81.599 16.8168S82.8687 16.5629 83.3202 16.055C83.7904 15.5471 84.0256 14.9922 84.0256 14.3902 84.0256 13.7695 83.7998 13.1957 83.3484 12.669 82.9157 12.1423 82.3232 11.879 81.5708 11.879 80.8371 11.879 80.2352 12.1423 79.7649 12.669 79.3135 13.1957 79.0877 13.7695 79.0877 14.3902z" fill="#446df6"/><path d="M91.4945 20.4849C91.1371 20.2592 90.9584 19.9018 90.9584 19.4127S91.3158 18.1806 92.0306 17.1836C92.2375 16.8638 92.5667 16.7039 93.0181 16.7039 93.4884 16.7039 94.1186 16.9391 94.9086 17.4093 95.6987 17.8608 96.4135 18.0865 97.053 18.0865 98.2005 18.0865 98.7742 17.8608 98.7742 17.4093 98.7742 17.0519 98.1441 16.7886 96.8837 16.6193 95.6987 16.45 94.523 16.0079 93.3567 15.2931 92.8112 14.9545 92.3597 14.4278 92.0023 13.713 91.6449 12.9794 91.4662 12.1141 91.4662 11.1171c0-2.97205 2.041-4.4581 6.1229-4.4581C98.9247 6.659 100.298 6.97878 101.709 7.61835 102.367 7.91932 102.696 8.29554 102.696 8.74699 102.696 9.19845 102.489 9.75337 102.076 10.4117 101.662 11.0701 101.238 11.3993 100.806 11.3993 100.58 11.3993 100.157 11.2582 99.536 10.9761 98.9341 10.6939 98.2757 10.5528 97.5609 10.5528 96.4511 10.5528 95.8962 10.7597 95.8962 11.1736 95.8962 11.7379 96.5357 12.1047 97.8149 12.274 99.0564 12.4057 100.26 12.7631 101.427 13.3462 101.972 13.6096 102.423 14.0704 102.781 14.7288 103.157 15.3684 103.345 16.1772 103.345 17.1554S103.157 18.9706 102.781 19.6666C102.423 20.3438 101.916 20.8517 101.257 21.1903 100.053 21.7734 98.5391 22.065 96.7144 22.065 94.9086 22.065 93.1686 21.5383 91.4945 20.4849z" fill="#446df6"/><path d="M113.426 6.99759c1.881.0 3.44199999999999.71481 4.684 2.14443C119.37 10.5716 120 12.321 120 14.3902v4.966C120 19.7889 119.981 20.1181 119.944 20.3438 119.925 20.5507 119.84 20.7953 119.69 21.0774 119.445 21.5665 118.721 21.811 117.517 21.811 116.37 21.811 115.655 21.5665 115.373 21.0774 115.222 20.7953 115.128 20.5413 115.09 20.3156 115.072 20.0899 115.062 19.7513 115.062 19.2998V14.362C115.062 13.5908 114.846 12.9888 114.413 12.5562 113.981 12.1235 113.426 11.9072 112.748 11.9072 112.09 11.9072 111.507 12.1141 110.999 12.528 110.491 12.923 110.2 13.3744 110.124 13.8823v5.4739C110.124 19.7889 110.106 20.1181 110.068 20.3438 110.049 20.5507 109.964 20.7953 109.814 21.0774 109.569 21.5665 108.845 21.811 107.641 21.811 106.456 21.811 105.732 21.5571 105.469 21.0492 105.337 20.7671 105.252 20.5225 105.215 20.3156 105.196 20.1087 105.187 19.7795 105.187 19.328V2.4548C105.187 2.02216 105.196 1.70237 105.215 1.49545 105.252 1.26973 105.337 1.02519 105.469.761835 105.732.253945 106.466.0 107.67.0 108.855.0 109.569.253945 109.814.761835 109.964 1.044 110.049 1.29794 110.068 1.52367 110.106 1.73059 110.124 2.05037 110.124 2.48302V8.71878C111.065 7.57132 112.165 6.99759 113.426 6.99759z" fill="#446df6"/></svg>