<svg width="30" height="30" viewBox="0 0 30 30" fill="none" xmlns="http://www.w3.org/2000/svg"><path d="M23.2469 29.8791C23.0624 29.8836 22.8794 29.8371 22.7189 29.7441l-7.707-4.059-6.78603 3.654C7.11887 29.9391 5.73287 29.5281 5.13287 28.4196 5.12537 28.4061 5.11787 28.3926 5.11037 28.3776 4.87487 27.9141 4.79237 27.3906 4.87337 26.8776l1.32-7.791-5.517001-5.586c-.9015-.93-.9015-2.409.0-3.3405C1.02737 9.79107 1.49237 9.55257 1.99637 9.48357l7.5645-1.149 3.36453-7.0095C13.4489.185067 14.7974-.315933 15.9389.207567 16.4339.434067 16.8299.831567 17.0564 1.32507l3.3795 7.0335 7.59 1.1625C28.6394 9.61257 29.1899 9.95157 29.5499 10.4571 30.2219 11.4231 30.1199 12.7281 29.3069 13.5786l-5.4915 5.52L24.5804 23.2971C24.6869 23.9271 24.2714 24.5286 23.6429 24.6471 23.0249 24.7581 22.4339 24.3471 22.3229 23.7276L21.5444 19.5291C21.4139 18.7596 21.6584 17.9736 22.2044 17.4171l5.505-5.559-7.59-1.1775C19.3499 10.5561 18.6974 10.0461 18.3899 9.33057l-3.378-7.0035-3.42 7.1145C11.2844 10.1586 10.6319 10.6671 9.86237 10.7916l-7.5645 1.149 5.4645 5.55C8.30687 18.0381 8.55137 18.8136 8.42237 19.5741l-1.32 7.791 6.78453-3.639c.671999999999999-.378 1.4925-.378 2.1645.0l7.6965 4.059C24.2174 28.0416 24.4559 28.5831 24.3284 29.1036 24.2114 29.6241 23.7524 29.9946 23.2199 30.0036L23.2469 29.8791z" fill="#446df6"/></svg>