<svg width="30" height="30" viewBox="0 0 30 30" fill="none" xmlns="http://www.w3.org/2000/svg"><path d="M21.3213.75C26.1067.75 30 4.73217 30 9.62837V20.3716c0 4.8962-3.8933 8.8784-8.6787 8.8784-.552.0-1-.458400000000001-1-1.0232.0-.564800000000002.448-1.0231 1-1.0231C25.004 27.2037 28 24.1396 28 20.3716V11.7975H23.0747C21.4573 11.7988 20.1387 13.1467 20.1373 14.8029 20.1387 16.459 21.4573 17.8069 23.0747 17.8083h2.0466c.552.0 1 .458300000000001 1 1.0231.0.564800000000002-.448 1.0232-1 1.0232H23.0747C20.3533 19.8532 18.1387 17.5873 18.1373 14.8029 18.1387 12.0185 20.3533 9.75251 23.0747 9.75115H28V9.62837c0-3.76799-2.996-6.83203-6.6787-6.83203H8.67733c-2.968.0-5.45866 2.00268-6.32666 4.74613H15.532c.552.0 1 .45838 1 1.02317.0.56615-.448 1.02317-1 1.02317H2.004L2 9.62837V20.3716c0 3.768 2.99467 6.8321 6.67733 6.8321H15.0387C15.5907 27.2037 16.0387 27.662 16.0387 28.2268 16.0387 28.7916 15.5907 29.25 15.0387 29.25H8.67733C3.892 29.25.0 25.2678.0 20.3716V9.62837C0 4.73217 3.892.75 8.67733.75H21.3213zm2.4248 12.9375c.552000000000003.0 1 .458399999999999 1 1.0231.0.5648-.447999999999997 1.0232-1 1.0232H23.2915c-.552.0-1-.458400000000001-1-1.0232.0-.5647.448-1.0231 1-1.0231H23.7461z" fill="#446df6"/></svg>